<?xml version="1.0" encoding="UTF-8"?>
<svg xmlns="http://www.w3.org/2000/svg" xmlns:xlink="http://www.w3.org/1999/xlink" width="193pt" height="193pt" viewBox="0 0 193 193" version="1.1">
<g id="surface1">
<path style=" stroke:none;fill-rule:evenodd;fill:rgb(100%,100%,100%);fill-opacity:0;" d="M 0 0.242188 L 192.757813 0.242188 L 192.757813 193 L 0 193 L 0 0.242188 "/>
<path style=" stroke:none;fill-rule:nonzero;fill:#fff;fill-opacity:1;" d="M 96.378906 176.742188 C 68.21875 176.742188 45.386719 140.871094 45.386719 96.621094 C 45.386719 52.371094 68.21875 16.503906 96.378906 16.503906 C 124.539063 16.503906 147.367188 52.371094 147.367188 96.621094 C 147.367188 140.871094 124.539063 176.742188 96.378906 176.742188 Z M 96.5625 20.035156 C 70.480469 20.035156 49.335938 54.28125 49.335938 96.53125 C 49.335938 138.777344 70.480469 173.023438 96.5625 173.023438 C 122.644531 173.023438 143.789063 138.777344 143.789063 96.53125 C 143.789063 54.28125 122.644531 20.035156 96.5625 20.035156 "/>
<path style=" stroke:none;fill-rule:nonzero;fill:#fff;fill-opacity:1;" d="M 121.984375 66.339844 C 103.554688 65.472656 99.980469 63.953125 99.761719 68.941406 C 106.265625 68.613281 118.949219 67.746094 119.601563 82.058594 C 120.25 96.367188 102.90625 93.222656 102.253906 93.113281 C 107.566406 97.992188 121.117188 114.035156 134.34375 117.722656 C 120.144531 116.75 116.933594 119.238281 99.480469 95.066406 C 99.480469 102.542969 99.480469 119.78125 99.480469 122.710938 C 99.261719 127.804688 105.832031 135.070313 114.289063 135.070313 C 112.121094 136.910156 104.964844 138.101563 100.304688 135.933594 C 97.59375 140.488281 94.664063 160.867188 80.574219 159.894531 C 71.359375 156.746094 81.222656 145.152344 85.777344 155.664063 C 88.488281 153.496094 92.5 149.921875 92.5 134.203125 C 92.5 118.480469 92.5 95.175781 92.5 95.175781 C 84.585938 108.941406 74.609375 115.339844 69.300781 117.289063 C 67.671875 117.722656 57.589844 112.953125 56.722656 112.300781 C 71.359375 112.519531 74.9375 109.699219 88.269531 93.546875 C 83.933594 94.089844 71.792969 91.921875 71.792969 80.863281 C 71.792969 69.699219 81.875 69.15625 92.0625 69.15625 C 92.0625 65.144531 91.628906 63.953125 68.648438 66.664063 C 67.238281 66.988281 62.253906 73.277344 55.855469 73.601563 C 59.21875 71.109375 65.71875 63.519531 66.371094 60.160156 C 71.359375 61.351563 85.667969 63.300781 91.847656 62.433594 C 91.847656 57.121094 91.847656 56.148438 91.847656 54.414063 C 95.316406 54.304688 96.292969 53.003906 99.542969 47.691406 C 99.4375 53.003906 99.4375 62.328125 99.4375 62.328125 C 99.4375 62.328125 119.492188 63.085938 126.105469 60.050781 C 128.921875 65.253906 134.777344 74.144531 139.113281 77.613281 C 132.066406 74.253906 122.417969 67.097656 121.984375 66.339844 Z M 92.28125 71.433594 C 84.691406 71.433594 79.707031 71.324219 79.707031 80.320313 C 79.707031 89.320313 84.148438 90.621094 92.28125 90.621094 C 92.28125 88.886719 92.28125 74.144531 92.28125 71.433594 Z M 99.542969 91.164063 C 105.832031 91.164063 112.230469 91.703125 112.230469 80.863281 C 112.230469 70.023438 104.964844 71.109375 99.542969 71.109375 C 99.542969 76.527344 99.542969 85.960938 99.542969 91.164063 Z M 114.234375 56.367188 C 113.363281 56.367188 112.660156 55.660156 112.660156 54.792969 C 112.660156 53.925781 113.363281 53.222656 114.234375 53.222656 C 115.101563 53.222656 115.804688 53.925781 115.804688 54.792969 C 115.804688 55.660156 115.101563 56.367188 114.234375 56.367188 Z M 111.523438 53.113281 C 110.65625 53.113281 109.949219 52.40625 109.949219 51.539063 C 109.949219 50.671875 110.65625 49.96875 111.523438 49.96875 C 112.390625 49.96875 113.097656 50.671875 113.097656 51.539063 C 113.097656 52.40625 112.390625 53.113281 111.523438 53.113281 Z M 110.929688 54.953125 C 110.929688 55.855469 110.199219 56.578125 109.300781 56.578125 C 108.402344 56.578125 107.675781 55.855469 107.675781 54.953125 C 107.675781 54.058594 108.402344 53.328125 109.300781 53.328125 C 110.199219 53.328125 110.929688 54.058594 110.929688 54.953125 Z M 94.882813 47.472656 C 93.148438 45.957031 89.03125 40.972656 98.460938 38.042969 C 100.734375 36.960938 102.035156 36.417969 103.554688 35.007813 C 103.554688 39.234375 96.292969 42.054688 94.882813 47.472656 Z M 78.566406 134.203125 C 77.699219 134.203125 76.996094 133.496094 76.996094 132.628906 C 76.996094 131.761719 77.699219 131.054688 78.566406 131.054688 C 79.433594 131.054688 80.136719 131.761719 80.136719 132.628906 C 80.136719 133.496094 79.433594 134.203125 78.566406 134.203125 Z M 78.894531 129.105469 C 78.085938 129.105469 77.429688 128.449219 77.429688 127.644531 C 77.429688 126.832031 78.085938 126.179688 78.894531 126.179688 C 79.699219 126.179688 80.355469 126.832031 80.355469 127.644531 C 80.355469 128.449219 79.699219 129.105469 78.894531 129.105469 Z M 81.332031 128.996094 C 82.050781 128.996094 82.632813 129.582031 82.632813 130.296875 C 82.632813 131.015625 82.050781 131.597656 81.332031 131.597656 C 80.613281 131.597656 80.03125 131.015625 80.03125 130.296875 C 80.03125 129.582031 80.613281 128.996094 81.332031 128.996094 Z M 75.585938 128.566406 C 76.425781 128.566406 77.105469 129.242188 77.105469 130.082031 C 77.105469 130.921875 76.425781 131.597656 75.585938 131.597656 C 74.746094 131.597656 74.070313 130.921875 74.070313 130.082031 C 74.070313 129.242188 74.746094 128.566406 75.585938 128.566406 "/>
</g>
</svg>
